<svg xmlns="http://www.w3.org/2000/svg" xml:space="preserve" width="960" height="960" viewBox="0 0 254 254"><path d="m172.908 247.385-.45-.43-62.38-.754c-34.31-.414-63.836-.783-65.615-.82-3.189-.067-3.244-.075-4.086-.59-1.585-.972-1.564-.841-1.509-9.41.026-4.099-.051-53.67-.172-110.158l-.22-102.706.467-.741c.285-.452.702-.828 1.07-.965.435-.163 6.79-.365 23.12-.735 36.875-.836 47.075-1.078 57.296-1.36 5.343-.147 12.698-.35 16.344-.449s11.94-.301 18.433-.448c6.492-.146 13.244-.319 15.003-.383 3.682-.134 4.77.061 5.907 1.06 1.011.888 1.514 2.453.901 2.804-.216.125-.227 16.097-.078 109.925.107 67.43.24 109.846.344 109.952.093.095.168.626.168 1.18-.001.778-.122 1.216-.526 1.917-.5.867-3.073 3.54-3.407 3.54-.088 0-.363-.193-.61-.43m.905-2.225c.31-.262.698-.732.86-1.044.272-.524.286-9.4.181-112.364-.076-74.647-.175-111.955-.297-112.278l-.184-.483-3.137.097c-1.725.053-31.371.708-65.88 1.456-34.51.749-63.263 1.408-63.896 1.465-1.086.099-1.163.137-1.373.679-.176.453-.175 17.96.001 83.022.123 45.346.228 94.747.233 109.78l.01 27.33.385.407c.576.607 1.413.742 4.71.76 4.606.023 125.267 1.566 127.064 1.624.575.019.893-.09 1.323-.451m-13.16-.99a5108 5108 0 0 0-21.52-.338c-8.04-.111-19.89-.28-26.332-.375l-19.34-.28a6438 6438 0 0 1-17.071-.271c-5.194-.09-14.919-.257-21.611-.37-13.186-.224-13.008-.208-13.68-1.233-.28-.428-.312-3.003-.414-33.251-.142-42.015-.142-120.984 0-156.4l.11-27.544.436-.463c.24-.255.689-.543.998-.64.633-.2 7.343-.437 23.537-.833 6.043-.148 13.888-.35 17.434-.451 9.061-.257 25.52-.68 38.863-1 19.932-.48 26.458-.643 32.87-.826 3.446-.099 8.472-.225 11.169-.28 5.404-.112 5.515-.095 6.135.968.337.576.346 3.061.435 111.322l.09 110.734-.383.601c-.549.862-1.34 1.13-3.23 1.095zm10.933-.643c.22-.137.485-.556.59-.932.208-.75.224-93.013.03-174.931-.123-51.393-.011-47.188-1.26-47.6-.38-.125-1.325-.16-2.543-.092-1.066.059-4.308.15-7.204.201s-6.534.137-8.082.19-7.718.215-13.71.36c-5.994.146-15.187.388-20.431.539-5.244.15-16.276.44-24.517.641-42.704 1.047-51.227 1.289-51.984 1.476-.416.103-.806.358-1 .654-.298.456-.324 3.197-.455 47.618-.145 49.428.07 168.77.305 169.297.075.17.353.449.617.622.433.284 1.45.328 10.563.454 5.545.077 14.741.226 20.434.332 5.694.105 16.031.276 22.973.379s20.017.306 29.057.452c9.039.145 22.319.35 29.51.455s13.648.21 14.347.232c1.596.05 2.254-.032 2.76-.347m-14.11-.737c-.95-.025-8.508-.133-16.799-.24-26.974-.345-47.383-.648-86.053-1.277-6.96-.113-11.548-.256-11.757-.368-.931-.498-.868 2.223-1.087-46.692-.218-48.547-.072-168.612.206-169.343.085-.225.352-.538.592-.695.459-.3.714-.31 21.19-.818 4.045-.1 10.093-.263 13.439-.36 6.478-.19 15.988-.439 27.967-.73 15.933-.388 23.008-.567 32.598-.823 30.46-.814 32.607-.851 33.045-.564.228.149.466.5.53.782.064.28.169 49.974.233 110.43l.116 109.92-.422.45-.423.45-5.825-.038c-3.204-.02-6.601-.059-7.55-.084m13.633-.605c.207-.312.087-208.323-.125-215.887-.09-3.247-.195-4.682-.358-4.903-.203-.274-.559-.308-2.922-.274-3.091.045-13.604.307-27.753.693-5.394.147-18.142.472-28.33.722s-26.328.658-35.867.905c-35.944.933-32.603.784-33.26 1.484l-.427.454.03 96.281c.017 52.955.104 101.195.192 107.201.143 9.63.197 10.974.459 11.374l.297.453 5.776.119c7.327.15 22.527.385 48.907.755 11.437.16 30.723.44 42.859.62 26.313.39 30.265.39 30.522.003m-36.38-2.118a.7.7 0 0 1 .455 0c.125.05.023.092-.227.092s-.352-.041-.227-.092m-14.573-81.182c-1.598-.025-14.16-.174-27.916-.332-13.756-.157-25.483-.362-26.06-.454-.855-.137-1.16-.287-1.64-.806-.325-.35-.59-.827-.59-1.058s-.1-.52-.222-.642c-.311-.312-.21-47.943.103-48.32.115-.14.376-.582.58-.985.706-1.394.789-1.41 8.665-1.596 6.503-.155 31.268-.604 60.805-1.104l12.817-.217.688.425c1 .619 1.191 1.243 1.191 3.906 0 1.964-.04 2.276-.29 2.276-.265 0-.286 2.088-.236 23.744.041 18.141.003 23.838-.163 24.14-.119.216-.432.564-.696.771-.476.374-.577.377-12.305.337-6.504-.022-13.133-.06-14.73-.085m26.202-.702c.222-.155.403-.446.403-.646s.073-.32.161-.264c.187.115.384-.51.369-1.168-.008-.35-.04-.382-.134-.143-.15.378-.068-26.998.122-40.718.149-10.77.152-10.719-.844-11.099-.591-.225-4.85-.219-16.018.024-4.545.1-19.05.384-32.235.633-29.66.56-31.27.6-32.036.775-.795.181-1.236.79-1.478 2.04-.185.95-.602 43.391-.429 43.57.04.041.09-.654.11-1.544s.081.28.136 2.6l.1 4.219.587.586.587.587 11.762.152c41.96.54 49.815.628 58.621.652 8.616.023 9.861-.008 10.216-.256m-14.216-2.268c-5.493-.07-18.937-.224-29.874-.342-26.94-.292-34.138-.45-34.8-.765-.597-.283-1.182-1.735-1.15-2.857.009-.362.073-9.934.141-21.27.135-22.48.075-21.296 1.145-22.282.426-.392.564-.4 9.058-.589 4.745-.105 13.611-.275 19.704-.379s17.166-.308 24.607-.454c17.777-.35 23.062-.352 23.529-.01.345.252.353.738.401 24.185l.049 23.927-.492.513c-.423.442-.617.509-1.41.482-.506-.017-5.414-.089-10.908-.159m11.92-.712c.236-.197.343-.36.238-.363-.104-.003-.292.096-.416.22-.146.146-1.054.264-2.534.33l-2.307.1 2.295.035c2.047.031 2.342-.004 2.724-.322m-11.875.04c-1.673-.03-4.41-.03-6.083 0s-.304.054 3.042.054 4.714-.024 3.041-.054m-15.425-.182c-1.467-.03-3.918-.03-5.448 0s-.329.055 2.668.055c2.996 0 4.247-.024 2.78-.055m-14.267-.182c-1.623-.03-4.279-.03-5.902 0s-.295.055 2.951.055 4.574-.024 2.951-.055m-14.982-.181c-1.873-.03-4.937-.03-6.81 0s-.34.053 3.405.053 5.278-.024 3.405-.053m44.095-.142c-.194-.147-.44-.264-.545-.26-.106.003.012.123.262.265.588.337.731.334.283-.006zm1.09 0c-.194-.147-.44-.264-.545-.26-.106.003.012.123.261.265.589.337.732.334.284-.006zm1.517.212a4.4 4.4 0 0 0-.53-.283c-.427-.204-.433-.2-.1.066.289.232.88.435.63.217m1.014-.116a.42.42 0 0 0-.328-.179c-.13.002-.108.073.056.18.349.225.412.225.272 0m.919-.096c-.194-.147-.439-.264-.545-.26-.106.003.012.123.262.265.588.337.731.334.283-.006zm1.17.096c-.15-.097-.354-.176-.454-.176s-.06.08.09.176c.15.097.355.176.455.176s.059-.079-.091-.176m1.18 0a.42.42 0 0 0-.328-.179c-.13.002-.108.073.056.18.349.225.412.225.272 0m1.18.11c0-.039-.126-.12-.281-.18-.162-.061-.235-.03-.171.072.107.173.453.255.453.108m2.361 0c0-.039-.126-.12-.281-.18-.162-.061-.235-.03-.171.072.106.173.452.255.452.108m-69.95-.285-3.94-.097-.57-.545-.572-.545.217.481c.12.264.392.565.606.669.235.114 1.918.177 4.292.161l3.904-.026zm45.899-.103c-.194-.147-.48-.26-.636-.252s-.038.127.262.264c.704.323.811.32.374-.012m2.44.194c0-.047-.183-.174-.408-.283-.392-.19-.395-.187-.056.085.37.297.465.337.465.198m1-.098a.42.42 0 0 0-.33-.178c-.129.002-.107.073.057.179.349.225.412.225.272 0m1.18.098c0-.047-.184-.174-.409-.283-.392-.19-.394-.187-.056.085.37.297.465.337.465.198m1.09-.098c-.15-.096-.355-.176-.455-.176s-.059.08.091.177.354.176.454.176.06-.08-.09-.176m1.09 0c-.15-.096-.355-.176-.455-.176s-.059.08.09.177c.15.096.355.176.455.176s.059-.08-.09-.176m2.178 0c-.15-.096-.354-.176-.454-.176s-.059.08.091.177.354.176.454.176.06-.08-.09-.176m1.09 0c-.15-.096-.354-.176-.454-.176s-.059.08.09.177c.15.096.355.176.455.176s.059-.08-.091-.176m1.09 0c-.15-.096-.355-.176-.454-.176s-.06.08.09.177.355.176.454.176.06-.08-.09-.176m1.27 0c-.149-.096-.353-.176-.453-.176s-.06.08.09.177.355.176.455.176.059-.08-.091-.176m12.712-.146c-.001-.07-.328-.312-.727-.54-.722-.412-.725-.413-.725-.037 0 .254.193.459.589.625.563.237.866.22.863-.048m-40.86.062c0-.046-.184-.173-.408-.282-.393-.19-.395-.187-.056.084.37.297.464.337.464.198m.908-.188c-.124-.15-.318-.27-.43-.267-.113.003-.047.126.147.273.453.342.57.34.283-.006m1.438.206a4.4 4.4 0 0 0-.53-.282c-.428-.204-.434-.2-.101.066.29.232.88.434.631.216m.843-.212c-.194-.146-.44-.263-.545-.26s.012.123.262.266c.588.336.731.333.283-.006m1.336.227a30 30 0 0 1-.439-.318c-.336-.246-.344-.242-.114.052.137.174.335.318.44.318s.155-.024.113-.052m1.014-.13c-.062-.1-.194-.182-.294-.182s-.13.082-.07.182c.063.1.195.181.295.181s.13-.081.07-.181m1.18 0c-.15-.097-.354-.176-.453-.176s-.06.079.09.176.354.176.454.176.06-.08-.09-.176m1.09 0c-.15-.097-.354-.176-.454-.176s-.059.079.091.176.354.176.454.176.059-.08-.09-.176m1.09 0c-.15-.097-.354-.176-.454-.176s-.06.079.09.176.355.176.455.176.059-.08-.091-.176m1.09 0c-.15-.097-.355-.176-.455-.176s-.059.079.091.176.354.176.454.176.06-.08-.09-.176m1.09 0c-.357-.23-.597-.23-.455 0 .062.1.25.18.42.179.264-.002.269-.027.034-.18m1.18 0c-.062-.1-.25-.18-.42-.179-.264.002-.27.027-.035.179.356.23.597.23.454 0m1.09 0c-.063-.1-.195-.182-.295-.182s-.13.082-.07.182c.063.1.195.181.295.181s.13-.081.07-.181m1.18.11c0-.04-.127-.12-.282-.18-.162-.061-.235-.031-.171.072.106.173.453.255.453.108m2.088-.11c-.062-.1-.194-.182-.294-.182s-.131.082-.07.182c.062.1.195.181.295.181s.13-.081.069-.181m-31.407-.278c-.194-.147-.439-.264-.545-.26-.105.004.012.123.262.265.588.337.732.334.283-.006zm1.17.006c-.25-.143-.536-.26-.636-.26s.023.117.273.26c.25.142.535.26.635.26s-.022-.118-.272-.26m1.271.188c0-.047-.184-.174-.408-.283-.393-.19-.395-.187-.057.085.371.297.465.337.465.198m1.09 0c0-.047-.184-.174-.409-.283-.392-.19-.394-.187-.056.085.37.297.465.337.465.198m1.09-.098c-.15-.096-.355-.176-.455-.176s-.059.08.091.176c.15.097.354.177.454.177s.06-.08-.09-.177m1.09 0c-.15-.096-.355-.176-.455-.176s-.059.08.09.176c.15.097.355.177.455.177s.059-.08-.09-.177m1.089 0c-.15-.096-.354-.176-.454-.176s-.06.08.09.176c.15.097.355.177.454.177s.06-.08-.09-.177m1.09 0c-.356-.23-.597-.23-.455 0 .062.1.25.18.42.18.264-.003.27-.028.034-.18m1.089 0c-.15-.096-.354-.176-.454-.176s-.06.08.09.176c.15.097.355.177.455.177s.059-.08-.091-.177m1.09 0c-.15-.096-.355-.176-.454-.176s-.06.08.09.176c.15.097.354.177.454.177s.06-.08-.09-.177m1.09 0c-.15-.096-.355-.176-.455-.176s-.059.08.091.176c.15.097.354.177.454.177s.059-.08-.09-.177m1.27.11c0-.039-.126-.12-.281-.179-.162-.062-.235-.031-.171.072.106.172.452.255.452.108m1.09 0c0-.039-.127-.12-.282-.179-.161-.062-.234-.031-.17.072.106.172.452.255.452.108m-29.318-.388c-.194-.146-.44-.263-.545-.26s.012.123.262.266c.588.336.731.333.283-.006m1.27 0c-.193-.146-.479-.263-.635-.26-.181.004-.12.1.171.266.594.34.916.336.465-.006zm1.09 0c-.193-.146-.439-.264-.544-.26-.106.002-.034.125.16.272s.439.264.545.26c.106-.002.033-.125-.16-.272m1.17.194c0-.046-.184-.173-.408-.282-.393-.19-.395-.187-.056.084.37.297.464.337.464.198m.828-.194c-.194-.146-.439-.263-.545-.26-.105.004.012.123.262.266.588.336.732.333.283-.006m1.352.097c-.15-.097-.355-.176-.454-.176s-.06.08.09.176c.15.097.354.176.454.176s.06-.08-.09-.176m1.256.115a4.4 4.4 0 0 0-.53-.282c-.428-.204-.434-.2-.102.066.29.232.88.434.632.216m.923-.115c-.15-.097-.354-.176-.454-.176s-.06.08.09.176c.15.097.355.176.455.176s.059-.08-.091-.176m1.09 0c-.15-.097-.355-.176-.455-.176s-.059.08.091.176c.15.097.354.176.454.176s.06-.08-.09-.176m1.089 0c-.15-.097-.354-.176-.454-.176s-.059.08.09.176c.15.097.355.176.455.176s.059-.08-.091-.176m1.271 0a1.2 1.2 0 0 0-.545-.176c-.242 0-.242.02 0 .176a1.2 1.2 0 0 0 .545.176c.242 0 .242-.02 0-.176m1.09 0c-.15-.097-.354-.176-.454-.176s-.06.08.09.176c.15.097.355.176.455.176s.059-.08-.091-.176m1.09 0c-.15-.097-.355-.176-.455-.176s-.059.08.091.176c.15.097.354.176.454.176s.06-.08-.09-.176m1.09 0c-.15-.097-.355-.176-.455-.176s-.059.08.09.176c.15.097.355.176.455.176s.059-.08-.09-.176m45.49-.207c-23.875-.36-53.46-.61-53.285-.45.042.037 6.655.121 14.695.186s15.355.154 16.254.198 7.722.132 15.164.195c7.44.063 13.542.127 13.559.142s.507-.011 1.09-.058c.582-.046-2.782-.142-7.476-.213m-62.38.025c-.15-.096-.354-.176-.454-.176s-.06.08.09.176c.15.097.355.176.455.176s.059-.079-.091-.176m1.09 0c-.356-.23-.596-.23-.454 0 .061.1.25.18.419.18.265-.003.27-.028.035-.18m70.734 0c.062-.1-.015-.181-.17-.181s-.284.081-.284.181.077.182.171.182.222-.082.283-.182m2.089.096c0-.048-.245-.213-.545-.368-.683-.353-.724-.2-.046.168.571.31.59.317.59.2m.181-.643c0-.214-1.073-.904-1.407-.905-.446 0-.216.36.454.714.784.413.953.447.953.19m-.044-.95c-.041-.126-.346-.412-.678-.636-.622-.422-.33-.596.371-.221.193.103.349.124.345.045-.006-.134-1.29-.813-1.377-.727-.022.022-.095.26-.162.527-.108.43-.04.53.575.854.82.432 1.028.467.926.157m-2.616-1c.06-.574.163-8.563.227-17.752.112-16.046.26-22.724.537-24.041l.129-.615-7.879.122c-23.02.356-48.917.839-50.192.936-.8.06-4.613.165-8.475.232-3.862.066-7.09.189-7.173.272-.162.161-.301 7.96-.514 28.769l-.132 12.938 23.13.047c12.72.026 29.227.067 36.68.092l13.551.044zm-12.433-11.478-.536-.537.05-7.378.052-7.378.593-.53c.779-.696 1.617-.71 2.413-.04l.582.49-.093 7.092c-.1 7.657-.152 8.084-1.054 8.55-.797.413-1.407.33-2.007-.27m1.575-.453c.342-.256.34-.261-.041-.165-.63.159-.96-.567-1.13-2.5l-.152-1.703-.025 1.952c-.022 1.73.016 1.994.338 2.316.433.433.548.444 1.01.1m.771-.377c-.056-.056-.158.044-.226.224-.098.258-.077.28.102.101.124-.123.18-.27.124-.325m.16-1.13c-.045-.175-.083-.032-.083.317 0 .35.038.493.083.318a1.5 1.5 0 0 0 0-.636m-1.215-13.505c.414-.114.419-.127.059-.143-.589-.027-.969.46-.952 1.22l.015.668.212-.81c.163-.62.319-.84.666-.935m13.652 26.12c-.102-.122-.436-.369-.744-.55-.539-.316-.559-.316-.558 0 0 .193.282.482.681.697.669.363.985.287.62-.147m.15-.748c0-.14-.29-.426-.646-.636-.765-.451-.807-.458-.807-.125 0 .14.266.42.59.62.721.446.863.469.863.14m-.052-1.072c-.053-.14-.39-.426-.749-.638-.908-.535-.891-.028.02.591.692.47.897.484.73.047m.052-.929c0-.227-1.037-1.013-1.338-1.013-.336 0-.037.559.476.887.7.448.862.472.862.126m0-.968c-.001-.18-.317-.498-.727-.732-.587-.335-.725-.361-.725-.139 0 .152.306.476.68.721.832.545.773.533.771.15m0-1.026c0-.14-.29-.426-.646-.636-.769-.454-.807-.459-.807-.113 0 .147.307.43.681.628.83.437.772.428.772.12m0-.984c0-.195-.295-.496-.726-.738-.602-.338-.727-.36-.727-.127 0 .155.307.482.681.728.833.545.772.534.772.137m0-1.017c0-.23-1.039-1.014-1.344-1.014-.27 0 .297.738.759.988.616.335.585.333.585.026m0-1.075c0-.207-.221-.366-1.135-.81-.075-.037-.136.043-.136.178s.225.385.5.556c.608.377.771.393.771.076m-.032-.946c-.032-.155-.324-.449-.649-.654-.56-.353-.59-.355-.59-.036 0 .184.225.47.5.636.643.388.812.4.74.054m.032-.951c0-.178-.237-.465-.527-.636-.64-.378-.744-.386-.744-.056 0 .193.828.869 1.226 1 .025.009.045-.13.045-.308m0-1.02c0-.14-.286-.424-.635-.63-.591-.349-.636-.352-.636-.05 0 .248.726.795 1.226.923.025.006.045-.103.045-.243m-.473-1.503c-.606-.485-.798-.525-.798-.166 0 .317 1.152 1.026 1.252.77.04-.1-.165-.373-.454-.604m.441-.521c-.032-.155-.324-.449-.649-.654-.56-.354-.59-.356-.59-.037 0 .185.225.471.5.637.643.388.812.4.74.054m.032-.962c0-.285-.205-.448-1.135-.9-.075-.037-.136.055-.136.204 0 .204.815.88 1.226 1.015.025.008.045-.135.045-.319m-.032-1.036c-.032-.155-.324-.449-.649-.654-.56-.353-.59-.355-.59-.036 0 .184.225.47.5.636.643.388.812.4.74.054m.032-.961c0-.285-.205-.448-1.135-.901-.075-.037-.135.042-.134.176s.267.42.59.639c.727.491.68.485.68.086m0-1.01c0-.14-.286-.423-.635-.63-.514-.303-.636-.323-.636-.106 0 .148.266.431.59.629.705.43.681.426.681.107m0-.988c0-.285-.205-.448-1.135-.9-.075-.037-.136.055-.136.204 0 .204.815.88 1.226 1.015.025.008.045-.135.045-.319m-.048-1.156c-.05-.13-.347-.383-.658-.563-.548-.318-.565-.318-.565.012 0 .205.235.454.59.625.64.307.778.29.633-.074m.048-.932c0-.207-.221-.365-1.135-.81-.075-.037-.136.06-.136.215s.225.403.5.553c.626.34.771.347.771.042m-.048-1.066c-.05-.129-.347-.382-.658-.563-.548-.318-.565-.318-.565.013 0 .205.235.453.59.624.64.307.778.29.633-.074m.048-.837c0-.197-.254-.45-.635-.632-.52-.248-.636-.257-.636-.05 0 .19.831.866 1.226.997.025.008.045-.133.045-.315m0-1.027c0-.226-.85-.822-1.171-.822-.294 0-.032.494.4.755.638.385.771.396.771.067m-.059-1.077c-.057-.15-.353-.4-.658-.558-.469-.242-.554-.246-.554-.026 0 .24 1.094 1.037 1.248.91.038-.03.021-.177-.036-.326m.06-.887c0-.206-.883-.856-1.164-.856-.3 0-.047.499.391.77.604.375.772.393.772.086m-.06-1.111c-.057-.149-.353-.4-.658-.557-.52-.27-.554-.267-.554.048 0 .199.24.45.59.619.654.314.777.292.622-.11m.057-.88c0-.125-.287-.412-.635-.637-.575-.372-.634-.38-.634-.088 0 .178.225.462.5.633.6.372.772.393.77.092m-.057-1.118c-.057-.149-.353-.4-.658-.557-.467-.242-.554-.246-.554-.027 0 .252 1.099 1.072 1.244.928.04-.04.025-.195-.032-.344m.06-.886c0-.207-.883-.856-1.164-.856-.317 0-.039.57.391.804.623.338.772.348.772.052m-.474-1.524c-.614-.491-.798-.525-.798-.147 0 .36 1.152 1.078 1.252.78.04-.116-.165-.401-.454-.633m.473-.508c0-.299-1.055-.917-1.242-.728-.12.12.85.993 1.106.995.075 0 .136-.12.136-.267m-.473-1.49c-.606-.484-.798-.524-.798-.167 0 .341 1.156 1.076 1.252.796.04-.114-.165-.397-.454-.628m.473-.494c0-.341-1.155-1.076-1.252-.796-.068.199.834 1.047 1.116 1.05.075 0 .136-.114.136-.254m0-.978c0-.178-.245-.469-.544-.646-.456-.269-.545-.278-.545-.054 0 .147.224.435.5.64.611.457.59.455.59.06m0-1.026c0-.143-.245-.434-.544-.648-.543-.386-.545-.386-.545-.018 0 .217.207.482.5.641.62.337.59.336.59.025m0-1.08c0-.222-.73-.839-.992-.839-.261 0-.05.558.306.807.499.35.686.358.686.031m0-1.066c-.001-.125-.246-.366-.545-.536-.44-.25-.544-.26-.544-.056 0 .246.663.82.948.82.078 0 .14-.103.14-.228m.103-.817c-.025-.175-.304-.468-.62-.652-.48-.28-.572-.29-.572-.064 0 .2.943 1.003 1.21 1.03.016.003.008-.14-.018-.314m.08-1.026c0-.14-.287-.424-.637-.63-.575-.34-.635-.346-.635-.063 0 .171.225.447.5.613.632.382.771.396.771.08m-.045-1.062c-.041-.125-.314-.25-.606-.276l-.53-.048.454.269c.562.333.779.35.682.055m-1.046-1.045c0-.2-.081-.363-.181-.363s-.182.164-.182.363c0 .2.082.364.182.364s.181-.164.181-.364m.974-.09c-.057-.15-.218-.273-.357-.273-.363 0-.313.321.064.42.175.045.336.092.358.104s-.007-.102-.065-.251m.116-.818c0-.1-.25-.181-.555-.181-.325 0-.51.075-.444.181.062.1.312.182.556.182s.443-.082.443-.182m-63.289-.184c4.994-.102 16.803-.347 26.242-.545s21.691-.442 27.227-.544c5.537-.1 10.106-.224 10.155-.272.049-.05-.762-.089-1.803-.088-3.162.002-31.864.551-47.383.907-4.145.095-11.746.227-16.89.294-5.143.066-9.516.186-9.715.265-.509.202 1.628.2 12.167-.017m67.377 47.823c.103-1.01-.141-.445-.328.759-.079.51-.06.636.063.421.097-.167.216-.698.265-1.18m.27-50.873c0-.18-.118-.487-.264-.68-.238-.317-.244-.284-.06.328.224.747.325.856.325.352m27.621 103.792c-.04-19-.127-54.73-.193-79.4-.114-42.728-.121-41.093-.153 34.447-.024 55.094-.092 79.46-.225 79.815l-.192.51.419-.413.418-.414zm-.425-179.133c-.027-5.875-.049-1.122-.049 10.565s.022 16.493.049 10.683c.026-5.81.026-15.372 0-21.248m5.752 206.788c0-2.148.026-3.026.058-1.953.032 1.074.032 2.831 0 3.905s-.058.195-.058-1.952m.013-117.589c0-59.13.02-83.293.046-53.694.025 29.598.025 77.977 0 107.51-.025 29.531-.046 5.314-.046-53.816" style="fill:#000"/></svg>