<svg xmlns="http://www.w3.org/2000/svg" xml:space="preserve" width="960" height="960" viewBox="0 0 254 254"><path d="M144.135 246.714c-.346-.163-28.814-5.432-63.76-11.8-7.482-1.363-13.899-2.566-14.26-2.673-1.178-.349-2.779-1.77-3.429-3.043-1.364-2.675-1.405-3.513-.69-14.291.371-5.586 1.341-20.704 2.156-33.595s1.774-27.79 2.132-33.109c.357-5.319 1.097-16.972 1.644-25.897s1.868-29.946 2.937-46.714 2.181-34.543 2.473-39.5c.34-5.803.708-9.579 1.031-10.596.58-1.828 2.21-3.608 3.772-4.12.598-.196 12.446-2.8 26.329-5.787l31.306-6.736c19.747-4.253 24.841-5.26 25.897-5.122 1.752.23 8.233 2.864 9.045 3.677.396.396 1.05 1.745 1.454 3l.734 2.28-.704 12.603c-.939 16.79-1.956 35.95-2.07 38.992l-.093 2.459 2.924 4.717c2.321 3.745 3.114 5.358 3.848 7.827.509 1.71.925 3.536.925 4.057 0 .724-.77 1.848-3.278 4.787l-3.278 3.841v4.736l1.065.183c.586.1 2.614.405 4.508.677 3.683.528 4.393.867 6.018 2.875l.975 1.205-.4 6.478c-.22 3.562-.546 6.625-.725 6.805s-.797.488-1.376.683c-.919.31-1.06.516-1.131 1.64-.071 1.132.044 1.36.983 1.944.973.604 1.073.82 1.162 2.532.123 2.332-.256 3.064-1.728 3.34-1.136.213-1.156.245-1.156 1.819 0 1.276.124 1.642.612 1.796.337.107.877.486 1.2.843.51.565.548.932.288 2.85-.297 2.199-.299 2.203-1.526 2.49-1.187.279-1.23.337-1.23 1.71 0 1.098.139 1.464.613 1.614.337.107.878.488 1.203.848.558.616.568 1.018.18 7.09l-.41 6.439-3.133 5.439c-8.856 15.373-10.798 18.722-11.958 20.621-.727 1.19-1.333 2.653-1.425 3.442-.088.755-.682 10.961-1.32 22.68-1.717 31.595-1.95 34.889-2.555 36.335-.851 2.034-2.41 3.73-4.237 4.611-1.507.726-2.267.844-6.46.998-2.615.096-4.902.105-5.082.02m3.626-2.474c1.157-.715 2.766-3.511 2.766-4.805 0-.612-.177-.756-.931-.756-.801 0-.986.182-1.32 1.297-.482 1.609-1.692 3.081-2.965 3.609-.614.254-.903.569-.79.862.258.674 1.993.563 3.24-.207m6.877-.336c1.162-.704 2.272-2.567 2.59-4.35l.223-1.256-2.984.108c-2.88.105-2.99.137-3.164.929-.46 2.109-.923 3.211-1.836 4.375l-.988 1.261 2.581-.232c1.562-.14 2.975-.47 3.578-.835m-10.744.281c-.081-.244-6.903-1.615-17.975-3.612-9.814-1.77-26.03-4.695-36.037-6.502l-20.98-3.785c-3.408-.613-4.038-.998-4.77-2.915-.474-1.24-.538-2.111-.37-5.013.548-9.416 4.154-66.372 4.311-68.09.099-1.082.99-15.022 1.982-30.979 2.818-45.372 3.081-49.535 3.268-51.63.096-1.082.543-8.015.994-15.407 1.864-30.545 1.773-29.404 2.47-30.846.356-.739 1.029-1.517 1.495-1.729.465-.212 10.089-2.366 21.385-4.786s25.406-5.45 31.356-6.732c21.687-4.673 27.55-5.896 28.273-5.897.705-.002 1.829.843 2.09 1.57.178.494 1.926.075 1.926-.463 0-.911-1.27-1.765-2.627-1.765-1.078 0-16.198 3.128-37.202 7.696-8.086 1.758-18.032 3.902-29.667 6.395-6.761 1.448-12.992 2.794-13.846 2.99-2.828.65-4.075 2.21-4.356 5.448-.09 1.042-.46 6.688-.82 12.547a50663 50663 0 0 1-4.418 69.988c-.266 4.147-1.005 15.801-1.642 25.898s-1.6 25.29-2.14 33.764c-3.828 60.005-3.64 55.71-2.522 57.665 1.297 2.267 1.556 2.356 13.034 4.448 10.304 1.878 29.012 5.296 53.097 9.7 6.4 1.172 11.785 2.187 11.965 2.257.758.296 1.851.16 1.726-.215m2.138-1.903c1.412-1.11 1.806-2.914 2.184-9.995.897-16.807 3.282-59.327 4.771-85.067.621-10.728 1.432-24.963 1.803-31.634a49484 49484 0 0 1 4.074-72.12c1.794-31.305 1.944-34.396 1.714-35.312-.408-1.625 3.71-2.385-51.027 9.413a4669 4669 0 0 1-22.291 4.751c-4.418.923-8.376 1.903-8.797 2.178-.42.275-.954.968-1.186 1.54-.267.661-.858 8.09-1.62 20.381-.66 10.638-1.633 25.98-2.161 34.093-.529 8.113-1.56 24.414-2.292 36.223a10581 10581 0 0 1-2.143 33.765c-2.985 45.131-4.718 74.988-4.416 76.08.642 2.325.626 2.32 14.747 4.847 21.422 3.834 52.609 9.475 58.023 10.496 6.25 1.178 7.511 1.23 8.617.36M104.41 184.33c-3.265-1.167-6.052-4.24-7.642-8.427-1.01-2.66-1.264-7.943-.53-11.063 1.914-8.155 8.937-13.462 15.347-11.598 8.227 2.391 11.949 14.182 7.487 23.715-1.202 2.57-4.38 5.854-6.735 6.96-2.244 1.054-5.638 1.23-7.927.413m6.228-2.884c4.306-1.467 7.764-7.38 7.764-13.275 0-4.955-2.447-9.613-6.065-11.545-1.726-.922-5.386-.979-7.003-.11-1.496.805-3.904 3.06-4.832 4.528-2.91 4.599-2.94 11.905-.07 16.416 2.467 3.876 6.223 5.343 10.206 3.986m-4.693-4.262c-3.782-1.639-5.477-6.205-4.066-10.956.596-2.007 2.365-4.058 3.218-3.73.766.293 1.023 1.684.435 2.355-1.637 1.867-2.085 5.466-.95 7.613 1.73 3.271 5.925 2.768 7.473-.896.67-1.584.567-4.316-.21-5.591-.875-1.434-.867-2.913.016-3.193 2.23-.708 3.99 5.04 2.798 9.14-.931 3.202-4.06 5.813-6.911 5.766-.36-.006-1.172-.235-1.803-.508m1.515-6.74c-.58-.336-.602-.681-.377-5.808.131-2.998.376-5.71.545-6.025.373-.698 1.37-.747 1.912-.095.569.685.123 10.543-.523 11.569-.523.83-.684.866-1.557.36m-.04-79.05c-3.398-1.63-6.13-5.875-6.702-10.41-.968-7.69 2.892-15.734 9.043-18.841 1.704-.861 2.253-.97 4.87-.971 3.38 0 4.255.345 6.724 2.653 1.007.943 1.917 2.26 2.636 3.817 1 2.168 1.11 2.71 1.23 6.148.1 2.828-.006 4.302-.42 5.9-1.239 4.765-4.691 9.436-8.37 11.323-1.457.747-2.329.946-4.585 1.045-2.42.106-3.003.019-4.426-.664m7.994-3.007c6.785-3.478 9.632-14.681 5.332-20.981-1.473-2.158-3.314-3.234-5.805-3.393-1.888-.12-2.381-.015-4.238.899-6.435 3.168-9.623 13.18-6.245 19.617 1.007 1.918 1.35 2.338 2.798 3.424 2.31 1.733 5.314 1.892 8.158.434m-5.76-3.743c-2.603-1.217-4.072-4.809-3.416-8.356.57-3.084 2.27-5.703 3.417-5.262.934.358.957 1.366.067 2.885-1.202 2.052-1.408 4.291-.57 6.189.804 1.816 1.68 2.347 3.477 2.106 1.017-.136 1.64-.497 2.553-1.475 2.032-2.179 2.403-5.37.905-7.793-.835-1.351-.425-2.754.805-2.754 1.764 0 3.194 4.327 2.514 7.606-1.138 5.478-5.754 8.723-9.752 6.854m2.36-6.385c-.527-.385-.556-.876-.335-5.734.202-4.419.343-5.435.84-6.04.486-.592.707-.658 1.19-.358.54.335.587.84.505 5.41-.05 2.771-.162 5.367-.25 5.767-.221 1.01-1.21 1.495-1.95.955m45.853 163.114c.661-1.28 1.06-3.514.573-3.213-.205.126-.373.595-.373 1.041s-.214 1.322-.475 1.948c-.569 1.36-.39 1.507.275.224m-7.012-5.66c0-1.09.512-11.011 1.137-22.045s1.51-26.775 1.969-34.978c1.356-24.307 2.733-48.711 3.606-63.924.45-7.843 1.12-19.792 1.488-26.553s1.033-18.636 1.478-26.389c1.329-23.138 2.742-48.36 2.846-50.806.085-2.014.024-2.304-.511-2.407-.335-.065-.752.026-.928.2-.175.176-.672 6.57-1.105 14.21s-1.38 24.142-2.104 36.673a28461 28461 0 0 0-2.957 52.286 25373 25373 0 0 1-2.125 37.862 27634 27634 0 0 0-3.433 60.973c-.715 12.892-1.37 24.213-1.454 25.16l-.154 1.721h2.247zm6.699-.722c.212-2.852 1.357-23.218 2.465-43.844.364-6.762.814-14.801 1-17.866s.63-11.031.983-17.702c.355-6.671.795-14.71.98-17.866.588-10.049 1.947-34.588 2.452-44.255.268-5.138.568-10.449.666-11.801s.618-10.867 1.155-21.144a8643 8643 0 0 1 1.814-33.383c.46-8.084.792-15.081.736-15.549-.087-.738-.44-.972-2.685-1.785-1.422-.514-2.625-.893-2.675-.842-.125.128-2.855 47.255-4.41 76.145-.37 6.851-1.037 18.726-1.483 26.389s-1.255 21.898-1.798 31.634-1.203 21.463-1.468 26.061-.708 12.563-.988 17.702c-.42 7.734-1.743 31.135-2.664 47.123l-.212 3.688h5.931zm1.782-5.163c.382-7.377 1.049-19.366 1.677-30.158a7367 7367 0 0 0 2.299-41.305c.363-6.941.805-14.833.983-17.538.303-4.631 1.352-23.759 2.453-44.746.269-5.139.636-11.85.814-14.916.18-3.065.48-9.04.667-13.276.315-7.091 2.325-44.62 2.803-52.33.12-1.95.079-3.402-.1-3.513-.181-.112-.393 1.655-.516 4.306-.114 2.473-.652 12.314-1.194 21.87-.543 9.556-1.28 22.98-1.638 29.83-.359 6.852-.802 15.26-.986 18.686s-.481 9.031-.66 12.457-.478 8.662-.662 11.637c-.183 2.975-.85 14.777-1.482 26.225-.63 11.45-1.362 24.652-1.624 29.34s-.857 15.456-1.322 23.93-1.248 22.534-1.738 31.245c-.49 8.71-.825 15.905-.743 15.986.439.44.622-1.024.97-7.73m8.248-58.842c8.26-14.285 10.52-18.262 10.418-18.336-.056-.041-3.037-.259-6.623-.483-4.898-.307-6.58-.315-6.754-.033-.128.207-.333 2.69-.456 5.516a549 549 0 0 1-.521 9.73c-.496 7.628-.682 11.438-.55 11.288.07-.078 2.088-3.535 4.486-7.682m11.195-23.11c.123-2.074.281-4.633.351-5.687l.127-1.916-1.723-.788c-.948-.434-1.88-.789-2.072-.789-.4 0-.424-.175-.35-2.62.031-.99.216-1.899.41-2.02.196-.12 1.014-.317 1.818-.438 2.215-.332 2.363-.444 2.363-1.784 0-1.164-.088-1.261-1.966-2.177l-1.966-.959-.001-2.19c0-1.808.1-2.219.573-2.35.315-.086 1.335-.342 2.265-.567 1.523-.37 1.707-.512 1.846-1.422.085-.556.105-1.096.044-1.201-.06-.105-1.002-.545-2.092-.978l-1.981-.787v-4.302l1.957-.434c1.076-.239 2.167-.601 2.424-.805.341-.271.527-1.58.69-4.859l.224-4.488-1.09-.182c-2.236-.374-13.119-1.543-13.24-1.422-.156.157-.872 10.781-.735 10.915.054.054 2.017.296 4.36.537l4.262.44.108 1.125a9.7 9.7 0 0 1-.105 2.255l-.213 1.131-2.845-.219c-1.565-.12-3.534-.304-4.375-.41l-1.53-.19-.11 2.49c-.125 2.876-.448 2.644 4.153 2.99 4.582.346 4.426.262 4.42 2.409-.007 2.8.09 2.75-4.55 2.327-2.208-.202-4.11-.27-4.227-.154s-.27 1.224-.34 2.46l-.127 2.247 2.248.2c1.237.11 3.133.308 4.215.44l1.967.24.096 1.996c.065 1.346-.042 2.103-.328 2.322-.277.212-1.764.219-4.297.019-2.13-.169-3.944-.236-4.03-.15-.242.242-.882 12.378-.664 12.595.244.245 10.003 1.014 12.173.96l1.64-.041zm-1.762-11.745c-.078-1.294-.2-1.615-.535-1.406-.647.403-.92 2.985-.354 3.335.728.45.997-.133.89-1.93m-5.182.107v-1.475l-1.557-.003a34 34 0 0 1-3.278-.21l-1.721-.207v1.342c0 1.483.138 1.552 3.606 1.805.811.06 1.807.134 2.213.166.664.051.737-.09.737-1.418m1.363 0c.117-1.472-.131-1.94-.508-.957-.302.788-.238 2.432.096 2.432.162 0 .347-.664.412-1.475m4.28-9.425c.153-1.974.135-2.033-.547-1.772-.517.199-.747 2.816-.288 3.275.5.5.709.125.835-1.503m-4.987-.222v-1.288l-1.721-.175a277 277 0 0 0-3.278-.311l-1.557-.136v1.256c0 1.372.139 1.441 3.442 1.72 3.322.282 3.114.353 3.114-1.066m1.311-.188c0-.81-.147-1.475-.328-1.475-.18 0-.327.664-.327 1.475 0 .812.147 1.476.327 1.476s.328-.664.328-1.476m4.382-9.232c.232-1.69.147-1.922-.598-1.636-.671.258-.725 3.165-.059 3.165.284 0 .524-.559.657-1.529m-3.726-.274c0-.811-.148-1.475-.328-1.475s-.328.664-.328 1.475.148 1.475.328 1.475.328-.664.328-1.475m-1.311.04v-1.106l-3.197-.316c-1.758-.173-3.219-.302-3.246-.286s-.102.545-.164 1.176l-.114 1.148 1.967.19a73 73 0 0 0 3.36.246c1.375.055 1.394.04 1.394-1.051m8.85-14.233c0-.324-.553-1.123-1.229-1.776l-1.23-1.187-5.961-.78-5.962-.778-.18.67c-.1.368-.182 1.195-.185 1.837l-.004 1.167 5.983.674c8.01.902 8.769.917 8.769.173zm-12.784-7.9c0-2.401-.095-2.951-.539-3.121-.296-.114-.607-.139-.69-.055-.084.084-.23 1.402-.326 2.93-.17 2.727-.159 2.78.609 2.925.43.081.819.168.864.192.045.025.082-1.267.082-2.87m3.257-7.237c1.626-1.888 2.85-3.531 2.718-3.652-.287-.265-6.604-1.41-6.784-1.23-.07.069-.23 1.916-.359 4.105-.218 3.732-.194 3.99.386 4.137.34.086.722.138.85.115.127-.023 1.562-1.587 3.189-3.475m3.299-4.859c0-.143-.369-1.533-.82-3.088-.6-2.072-1.5-3.945-3.36-6.998l-2.54-4.17-.38 6.521c-.208 3.586-.307 6.594-.22 6.684.18.186 5.453 1.201 6.582 1.268.406.024.738-.074.738-.217m-5.9-73.119c0-.59-1.43-1.52-3.681-2.396-1.292-.503-2.386-.876-2.432-.83-.046.045.094.429.31.851.255.5 1.198 1.093 2.688 1.693 2.435.981 3.114 1.13 3.114.682" style="fill:#000"/></svg>